<svg width="120" height="120" viewBox="0 0 120 120" fill="none" xmlns="http://www.w3.org/2000/svg">
  <!-- Fondo circular con gradiente -->
  <circle cx="60" cy="60" r="60" fill="url(#gradient1)"/>
  
  <!-- Documentos apilados -->
  <g transform="translate(30, 25)">
    <!-- Documento trasero -->
    <rect x="8" y="8" width="44" height="56" rx="4" fill="#ffffff" fill-opacity="0.3" stroke="#ffffff" stroke-width="1"/>
    
    <!-- Documento medio -->
    <rect x="4" y="4" width="44" height="56" rx="4" fill="#ffffff" fill-opacity="0.6" stroke="#ffffff" stroke-width="1"/>
    
    <!-- Documento frontal -->
    <rect x="0" y="0" width="44" height="56" rx="4" fill="#ffffff" stroke="#ffffff" stroke-width="1"/>
    
    <!-- Líneas de texto en el documento frontal -->
    <line x1="6" y1="12" x2="32" y2="12" stroke="#2563eb" stroke-width="2" stroke-linecap="round"/>
    <line x1="6" y1="18" x2="38" y2="18" stroke="#2563eb" stroke-width="1.5" stroke-linecap="round"/>
    <line x1="6" y1="24" x2="28" y2="24" stroke="#2563eb" stroke-width="1.5" stroke-linecap="round"/>
    <line x1="6" y1="30" x2="35" y2="30" stroke="#2563eb" stroke-width="1.5" stroke-linecap="round"/>
    
    <!-- Icono de organización (carpeta pequeña) -->
    <g transform="translate(6, 38)">
      <path d="M2 4 L2 2 C2 1.4 2.4 1 3 1 L7 1 L9 3 L15 3 C15.6 3 16 3.4 16 4 L16 12 C16 12.6 15.6 13 15 13 L3 13 C2.4 13 2 12.6 2 12 L2 4 Z" fill="#fbbf24" stroke="#f59e0b" stroke-width="0.5"/>
    </g>
  </g>
  
  <!-- Icono de "Single" - punto único -->
  <circle cx="85" cy="35" r="6" fill="#fbbf24"/>
  <circle cx="85" cy="35" r="3" fill="#ffffff"/>
  
  <!-- Definición de gradientes -->
  <defs>
    <linearGradient id="gradient1" x1="0%" y1="0%" x2="100%" y2="100%">
      <stop offset="0%" style="stop-color:#3b82f6;stop-opacity:1" />
      <stop offset="50%" style="stop-color:#2563eb;stop-opacity:1" />
      <stop offset="100%" style="stop-color:#1d4ed8;stop-opacity:1" />
    </linearGradient>
  </defs>
</svg>